<svg width="248" height="41" viewBox="0 0 248 41" fill="none" xmlns="http://www.w3.org/2000/svg">
<g id="Content">
<path id="Vector" d="M0.000427246 14.7159C7.33969 9.78996 14.3484 5.09548 21.6546 0.202637C23.3075 1.35973 25.0267 2.48376 27.0764 3.93839C21.7207 7.5419 16.5964 11.0132 11.1746 14.6497C14.8112 17.1623 18.1833 19.5426 21.6876 21.956C27.1094 18.3194 32.4651 14.7159 37.92 11.0462C39.6721 12.1703 41.3912 13.3274 43.4079 14.6497C39.3415 17.3937 35.5397 19.9393 31.7047 22.518C28.8616 24.4024 21.5554 29.0307 21.5554 29.0307C21.5554 29.0307 21.5884 29.1299 20.5966 28.4687C13.8525 23.9065 7.07521 19.4104 0.000427246 14.7159Z" fill="white"></path>
<path id="Vector_2" d="M27.4409 14.7162L21.9861 11.0796L15.837 15.0137L21.391 18.7164L27.4409 14.7162Z" fill="#C8FF00"></path>
<path id="Vector_3" d="M0.000427246 25.6562C2.08319 24.2016 3.76924 23.0114 5.48835 21.8213C10.9432 25.524 16.2658 29.1275 21.6876 32.7971C27.0764 29.1606 32.432 25.557 37.953 21.8213C39.6721 23.0114 41.4243 24.2347 43.4079 25.5901C36.0686 30.516 29.0269 35.2766 21.7207 40.2025C14.6128 35.4088 7.47193 30.6482 0.000427246 25.6562Z" fill="#C8FF00"></path>
<path id="Vector_4" d="M114.52 27.31H111.181C111.181 27.31 111.181 20.4997 111.181 17.359C111.181 16.4995 110.851 16.1358 109.991 16.1358C108.669 16.1358 107.346 16.1358 105.958 16.1358C105.958 19.8715 105.958 23.5412 105.958 27.2769C104.801 27.2769 103.71 27.2769 102.586 27.2769C102.586 23.6073 102.586 19.9046 102.586 16.1689C100.801 16.1689 99.0814 16.1689 97.3293 16.1689C97.3293 19.8715 97.3293 23.5412 97.3293 27.2769C96.1722 27.2769 95.0812 27.2769 93.9572 27.2769C93.9572 22.5494 93.9572 17.7888 93.9572 13.0282C94.0894 13.0282 104.933 12.9951 110.189 12.9951C111.545 12.9951 112.735 13.4249 113.661 14.4828C114.256 15.144 114.553 15.9705 114.553 16.8631C114.553 20.2683 114.52 27.31 114.52 27.31Z" fill="white"></path>
<path id="Vector_5" d="M130.355 27.3116H126.983C126.983 27.3116 126.983 19.9062 126.983 16.2035C125.198 16.2035 123.479 16.2035 121.726 16.2035C121.726 19.9062 121.726 27.3116 121.726 27.3116H118.387V13.0298C118.387 13.0298 129.33 13.0298 134.554 13.0298C135.612 13.0298 136.603 13.2612 137.463 13.9224C138.422 14.6497 138.984 15.6084 138.984 16.8647C138.984 20.2699 138.951 27.3116 138.951 27.3116H135.612C135.612 27.3116 135.612 20.5343 135.612 17.4267C135.612 16.5341 135.281 16.1705 134.388 16.1705C133.066 16.1705 130.355 16.1705 130.355 16.1705V27.3116Z" fill="white"></path>
<path id="Vector_6" d="M157.796 20.9295C153.63 20.9295 149.564 20.9295 145.431 20.9295C145.431 21.756 145.398 22.5495 145.431 23.3429C145.464 23.7396 145.861 24.1033 146.324 24.1694C146.522 24.2024 157.63 24.2024 157.63 24.2024V27.3101C157.63 27.3101 149.994 27.3431 146.39 27.3431C143.778 27.3431 142.125 25.9215 142.125 23.3098C142.125 21.2601 142.158 19.1774 142.125 17.1277C142.092 14.6482 144.076 13.0944 146.093 13.0613C148.704 12.9952 151.283 12.9952 153.895 13.0613C156.11 13.0944 157.763 14.8135 157.796 17.0285C157.829 18.2847 157.796 19.5741 157.796 20.9295ZM154.457 18.0203C154.457 17.888 154.457 17.7889 154.49 17.6566C154.49 16.4665 154.192 16.1359 153.002 16.1359C152.076 16.1359 151.184 16.1359 150.258 16.1359C149.068 16.1359 147.878 16.1359 146.688 16.1359C145.96 16.1359 145.531 16.5326 145.497 17.1607C145.464 17.4252 145.497 17.7227 145.497 17.9872C148.473 18.0203 151.448 18.0203 154.457 18.0203Z" fill="white"></path>
<path id="Vector_7" d="M194.624 20.8965C194.624 21.723 194.591 22.4833 194.624 23.2768C194.624 23.7065 195.02 24.0702 195.516 24.1694C195.715 24.2024 206.856 24.2024 206.856 24.2024V27.3101C206.856 27.3101 199.219 27.3431 195.582 27.3431C193.83 27.3431 191.318 26.4505 191.318 23.3098C191.318 21.2271 191.351 19.1774 191.318 17.0946C191.285 14.6482 193.235 13.0944 195.252 13.0613C197.863 12.9952 200.475 12.9952 203.087 13.0613C205.302 13.1274 206.922 14.8135 206.955 17.0285C206.988 18.3178 206.955 19.6071 206.955 20.9295C204.872 20.9295 202.822 20.9295 200.773 20.9295C198.756 20.8965 196.706 20.8965 194.624 20.8965ZM203.616 18.0203C203.616 17.888 203.616 17.7889 203.649 17.6566C203.649 16.4665 203.351 16.1359 202.161 16.1359C201.269 16.1359 200.409 16.1359 199.516 16.1359C198.293 16.1359 197.07 16.1359 195.847 16.1359C195.153 16.1359 194.69 16.5326 194.657 17.1277C194.624 17.4252 194.657 17.6897 194.657 18.0203C197.632 18.0203 200.607 18.0203 203.616 18.0203Z" fill="white"></path>
<path id="Vector_8" d="M78.782 27.3085C76.9306 27.2754 75.2776 26.0191 74.8148 24.3C74.7156 23.9364 74.6826 23.5396 74.6826 23.1429C74.6826 21.1593 74.7156 19.1758 74.6826 17.1922C74.6164 14.8119 76.5339 13.0928 78.7159 13.0266C81.2945 12.9605 83.8401 12.9605 86.4188 13.0266C88.6007 13.0928 90.5182 14.8119 90.4521 17.1922C90.419 19.1427 90.4521 21.1263 90.4521 23.0768C90.4521 25.424 88.6999 27.2093 86.3527 27.2754C85.0964 27.3415 80.0382 27.3415 78.782 27.3085ZM85.8898 24.2008C86.7494 24.2008 87.1461 23.8041 87.1461 22.9446C87.1461 21.0932 87.1461 19.2749 87.1461 17.4236C87.1461 16.531 86.7824 16.1343 85.8898 16.1343C83.7079 16.1343 81.5259 16.1343 79.344 16.1343C78.4514 16.1343 78.0877 16.4979 78.0877 17.3905C78.0877 19.2088 78.0877 21.0271 78.0877 22.8454C78.0877 23.7711 78.4514 24.1347 79.377 24.1347C80.4019 24.2008 84.7658 24.2008 85.8898 24.2008Z" fill="white"></path>
<path id="Vector_9" d="M71.5753 18.418C70.4513 18.418 69.3934 18.418 68.2363 18.418C68.2363 18.0213 68.2363 17.6576 68.2363 17.2609C68.2363 16.5667 67.8726 16.1369 67.2114 16.1369C64.8973 16.1038 62.5831 16.1038 60.2358 16.1369C59.5746 16.1369 59.211 16.5667 59.211 17.2279C59.211 19.1784 59.211 21.0959 59.211 23.0464C59.211 23.7406 59.5746 24.1704 60.2689 24.1704C62.55 24.2035 64.8642 24.2035 67.1453 24.1704C67.8726 24.1704 68.2363 23.7406 68.2363 23.0133C68.2363 22.5836 68.2363 22.1868 68.2363 21.724C69.3603 21.724 70.4182 21.724 71.5092 21.724C71.6084 24.9969 70.6166 27.0797 67.542 27.245C64.9964 27.3772 62.4508 27.3111 59.8722 27.245C57.7894 27.2119 55.7728 25.592 55.8058 23.0794C55.8389 21.0959 55.8389 19.1123 55.8058 17.1287C55.7728 14.6492 57.7894 13.0293 59.8391 12.9632C62.3847 12.897 64.9303 12.897 67.509 12.9632C69.8232 13.0293 71.6745 14.8476 71.5753 17.1618C71.5753 17.5915 71.5753 17.9882 71.5753 18.418Z" fill="white"></path>
<path id="Vector_10" d="M184.705 21.7205C185.83 21.7205 186.92 21.7205 187.978 21.7205C188.144 24.5967 187.846 26.448 184.97 27.1753C184.705 27.2745 184.21 27.3076 183.846 27.3076C181.4 27.3076 178.953 27.3406 176.507 27.3076C174.523 27.3076 172.308 26.1174 172.308 23.109C172.308 21.1585 172.341 19.1749 172.308 17.2244C172.242 14.6788 174.358 13.0588 176.441 13.0258C178.953 12.9927 181.466 12.9927 183.945 13.0258C186.226 13.0588 188.011 14.5135 188.078 17.2244C188.078 17.6211 188.078 17.9847 188.078 18.3815C186.954 18.3815 185.863 18.3815 184.739 18.3815C184.739 17.9847 184.739 17.588 184.739 17.2244C184.739 16.5301 184.342 16.1334 183.648 16.1334C182.557 16.1003 181.466 16.1334 180.408 16.1334C179.284 16.1334 178.16 16.1334 177.003 16.1334C176.044 16.1334 175.713 16.497 175.713 17.4227C175.713 19.2741 175.713 21.0924 175.713 22.9437C175.713 23.8033 176.077 24.2 176.936 24.2C179.118 24.2 181.333 24.2 183.515 24.2C184.375 24.2 184.705 23.8032 184.705 22.9768C184.705 22.547 184.705 22.1503 184.705 21.7205Z" fill="white"></path>
<path id="Vector_11" d="M210.657 13.0298C210.657 13.0298 218.294 13.0298 221.93 13.0298C222.79 13.0298 223.617 13.1951 224.377 13.6579C225.633 14.4183 226.294 15.5093 226.294 16.997C226.294 20.336 226.294 23.642 226.294 26.981C226.294 27.0802 226.294 27.1794 226.261 27.3116C225.17 27.3116 224.079 27.3116 222.922 27.3116C222.922 27.1132 222.922 26.9479 222.922 26.7496C222.922 23.6089 222.922 20.4682 222.922 17.3276C222.922 16.5672 222.559 16.1705 221.798 16.1705C219.286 16.1705 214.029 16.2035 214.029 16.2035C214.029 16.2035 214.029 23.5758 214.029 27.3116C212.905 27.3116 211.814 27.3116 210.69 27.3116C210.657 22.551 210.657 13.0298 210.657 13.0298Z" fill="white"></path>
<path id="Vector_12" d="M230.096 7.00928C231.221 7.00928 232.311 7.00928 233.436 7.00928C233.436 8.03413 233.436 13.0262 233.436 13.0262H236.378V16.1338H233.436V27.308H230.063C230.096 27.2749 230.096 13.7865 230.096 7.00928Z" fill="white"></path>
<path id="Vector_13" d="M169.73 16.1339C168.407 16.1339 167.151 16.1009 165.895 16.1339C165.564 16.1339 165.167 16.2331 164.969 16.4315C164.771 16.6298 164.639 17.0266 164.639 17.3241C164.605 20.4648 164.639 27.0767 164.639 27.2751C163.481 27.2751 161.266 27.2751 161.266 27.2751C161.266 27.2751 161.299 20.3987 161.266 17.1919C161.2 14.6132 163.151 13.1255 165.167 13.0263C166.688 12.9272 169.796 12.9933 169.796 12.9933C169.796 12.9933 169.73 15.076 169.73 16.1339Z" fill="white"></path>
<path id="Vector_14" d="M247.915 13.0304V16.1049C247.915 16.1049 245.171 16.138 244.047 16.138C243.121 16.138 242.758 16.5016 242.758 17.4273C242.758 20.5349 242.758 27.2791 242.758 27.2791H239.386C239.386 27.2791 239.419 20.3696 239.386 17.1959C239.32 14.6172 241.27 13.1295 243.287 13.0304C244.807 12.9642 247.915 13.0304 247.915 13.0304Z" fill="white"></path>
</g>
</svg>
