<svg xmlns="http://www.w3.org/2000/svg" width="80" height="73" fill="none"><path fill="#fff" d="M.95 26.275A45162 45162 0 0 1 39.91.151c2.975 2.083 6.068 4.106 9.756 6.725-9.636 6.486-18.856 12.734-28.611 19.28 6.543 4.523 12.61 8.807 18.915 13.151 9.755-6.546 19.392-13.032 29.207-19.637 3.152 2.023 6.245 4.106 9.874 6.486-7.317 4.94-14.157 9.521-21.057 14.163-5.116 3.392-18.262 11.723-18.262 11.723s.06.178-1.725-1.012C25.873 42.818 13.68 34.725.95 26.275"/><path fill="#C8FF00" d="m50.322 26.275-9.815-6.545-11.064 7.08 9.993 6.666zM.95 45.968c3.747-2.619 6.78-4.76 9.873-6.903C20.639 45.73 30.216 52.216 39.97 58.82c9.696-6.545 19.332-13.032 29.266-19.756 3.093 2.142 6.246 4.344 9.815 6.784C65.846 54.715 53.176 63.285 40.03 72.15 27.24 63.523 14.392 54.954.95 45.968"/></svg>