<svg xmlns="http://www.w3.org/2000/svg" width="248" height="41" fill="none"><g id="Content"><path id="Vector" fill="#fff" d="M0 14.716C7.34 9.79 14.348 5.096 21.655.203c1.652 1.157 3.372 2.28 5.421 3.735-5.355 3.604-10.48 7.075-15.901 10.712 3.636 2.512 7.008 4.893 10.513 7.306 5.421-3.637 10.777-7.24 16.232-10.91 1.752 1.124 3.471 2.281 5.488 3.604-4.066 2.744-7.868 5.29-11.703 7.868-2.843 1.884-10.15 6.513-10.15 6.513s.033.099-.958-.562C13.852 23.907 7.075 19.41 0 14.716"/><path id="Vector_2" fill="#C8FF00" d="m27.44 14.716-5.454-3.636-6.149 3.934 5.554 3.702z"/><path id="Vector_3" fill="#C8FF00" d="M0 25.656c2.083-1.454 3.77-2.645 5.488-3.835a14399 14399 0 0 0 16.2 10.976c5.388-3.636 10.744-7.24 16.265-10.976 1.72 1.19 3.471 2.414 5.455 3.77-7.34 4.925-14.381 9.686-21.687 14.612C14.613 35.409 7.47 30.648 0 25.656"/><path id="Vector_4" fill="#fff" d="M114.52 27.31h-3.339v-9.951c0-.86-.33-1.223-1.19-1.223h-4.033v11.14h-3.372V16.17h-5.257v11.108h-3.372V13.028c.132 0 10.976-.033 16.232-.033 1.356 0 2.546.43 3.472 1.488.595.661.892 1.487.892 2.38 0 3.405-.033 10.447-.033 10.447"/><path id="Vector_5" fill="#fff" d="M130.355 27.312h-3.372V16.203h-5.257v11.109h-3.339V13.03h16.167c1.058 0 2.049.231 2.909.892.959.728 1.521 1.686 1.521 2.943 0 3.405-.033 10.447-.033 10.447h-3.339v-9.885c0-.893-.331-1.256-1.224-1.256h-4.033z"/><path id="Vector_6" fill="#fff" d="M157.796 20.93h-12.365c0 .826-.033 1.62 0 2.413.033.397.43.76.893.826.198.033 11.306.033 11.306.033v3.108s-7.636.033-11.24.033c-2.612 0-4.265-1.421-4.265-4.033 0-2.05.033-4.133 0-6.182-.033-2.48 1.951-4.034 3.968-4.067 2.611-.066 5.19-.066 7.802 0 2.215.033 3.868 1.752 3.901 3.968.033 1.256 0 2.545 0 3.9m-3.339-2.91c0-.132 0-.231.033-.363 0-1.19-.298-1.521-1.488-1.521h-6.314c-.728 0-1.157.397-1.191 1.025-.033.264 0 .562 0 .826 2.976.033 5.951.033 8.96.033"/><path id="Vector_7" fill="#fff" d="M194.624 20.897c0 .826-.033 1.586 0 2.38 0 .43.396.793.892.892.199.033 11.34.033 11.34.033v3.108s-7.637.033-11.274.033c-1.752 0-4.264-.892-4.264-4.033 0-2.083.033-4.133 0-6.215-.033-2.447 1.917-4 3.934-4.034q3.917-.099 7.835 0c2.215.066 3.835 1.752 3.868 3.968.033 1.289 0 2.578 0 3.9h-6.182c-2.017-.032-4.067-.032-6.149-.032m8.992-2.877c0-.132 0-.231.033-.363 0-1.19-.298-1.521-1.488-1.521h-6.314c-.694 0-1.157.397-1.19.992-.033.297 0 .562 0 .892z"/><path id="Vector_8" fill="#fff" d="M78.782 27.309c-1.851-.034-3.504-1.29-3.967-3.009-.1-.364-.132-.76-.132-1.157 0-1.984.033-3.967 0-5.95-.067-2.381 1.85-4.1 4.033-4.166 2.579-.066 5.124-.066 7.703 0 2.182.066 4.1 1.785 4.033 4.165-.033 1.95 0 3.934 0 5.885 0 2.347-1.752 4.132-4.1 4.198-1.256.067-6.314.067-7.57.034M85.89 24.2c.86 0 1.256-.397 1.256-1.256v-5.521c0-.893-.364-1.29-1.256-1.29h-6.546c-.893 0-1.256.364-1.256 1.256v5.455c0 .926.363 1.29 1.289 1.29 1.025.066 5.389.066 6.513.066"/><path id="Vector_9" fill="#fff" d="M71.575 18.418h-3.339v-1.157c0-.694-.363-1.124-1.025-1.124a245 245 0 0 0-6.975 0c-.661 0-1.025.43-1.025 1.09v5.82c0 .694.364 1.123 1.058 1.123 2.281.033 4.595.033 6.876 0 .728 0 1.091-.43 1.091-1.157v-1.289h3.273c.1 3.273-.892 5.356-3.967 5.521-2.546.132-5.091.066-7.67 0-2.083-.033-4.1-1.653-4.066-4.166q.05-2.975 0-5.95c-.033-2.48 1.983-4.1 4.033-4.166 2.546-.066 5.091-.066 7.67 0 2.314.066 4.165 1.885 4.066 4.199z"/><path id="Vector_10" fill="#fff" d="M184.705 21.72h3.273c.166 2.877-.132 4.728-3.008 5.455-.265.1-.76.133-1.124.133-2.446 0-4.893.033-7.339 0-1.984 0-4.199-1.19-4.199-4.199 0-1.95.033-3.934 0-5.885-.066-2.545 2.05-4.165 4.133-4.198 2.512-.033 5.025-.033 7.504 0 2.281.033 4.066 1.488 4.133 4.198v1.157h-3.339v-1.157c0-.694-.397-1.09-1.091-1.09-1.091-.034-2.182 0-3.24 0h-3.405c-.959 0-1.29.363-1.29 1.289v5.52c0 .86.364 1.257 1.223 1.257h6.579c.86 0 1.19-.397 1.19-1.223z"/><path id="Vector_11" fill="#fff" d="M210.657 13.03h11.273c.86 0 1.687.165 2.447.628 1.256.76 1.917 1.851 1.917 3.339v9.984c0 .1 0 .198-.033.33h-3.339v-9.983c0-.76-.363-1.157-1.124-1.157-2.512 0-7.769.032-7.769.032v11.109h-3.339c-.033-4.761-.033-14.282-.033-14.282"/><path id="Vector_12" fill="#fff" d="M230.096 7.01h3.34v6.016h2.942v3.108h-2.942v11.174h-3.373c.033-.033.033-13.521.033-20.299"/><path id="Vector_13" fill="#fff" d="M169.73 16.134c-1.323 0-2.579-.033-3.835 0-.331 0-.728.1-.926.297-.198.199-.33.596-.33.893-.034 3.14 0 9.753 0 9.951h-3.373s.033-6.876 0-10.083c-.066-2.579 1.885-4.066 3.901-4.166 1.521-.099 4.629-.033 4.629-.033s-.066 2.083-.066 3.14"/><path id="Vector_14" fill="#fff" d="M247.915 13.03v3.075s-2.744.033-3.868.033c-.926 0-1.289.364-1.289 1.29v9.851h-3.372s.033-6.91 0-10.083c-.066-2.579 1.884-4.067 3.901-4.166 1.52-.066 4.628 0 4.628 0"/></g></svg>