<svg width="87" height="81" viewBox="0 0 87 81" fill="none" xmlns="http://www.w3.org/2000/svg">
<g id="Logo Vector">
<path id="Vector" d="M0 29.4278C14.6726 19.576 28.6842 10.1871 43.2907 0.401367C46.5953 2.71555 50.0321 4.96361 54.1299 7.87287C43.4229 15.0799 33.1785 22.0224 22.3393 29.2956C29.6095 34.3207 36.351 39.0813 43.3568 43.908C54.196 36.6349 64.903 29.4278 75.8083 22.0886C79.3112 24.3366 82.748 26.6508 86.7797 29.2956C78.6503 34.7835 71.0496 39.8747 63.3829 45.032C57.6989 48.8008 43.0924 58.0576 43.0924 58.0576C43.0924 58.0576 43.1585 58.2559 41.1757 56.9335C27.6928 47.8091 14.1438 38.8168 0 29.4278Z" fill="white"></path>
<path id="Vector_2" d="M54.8586 29.4278L43.9533 22.1547L31.66 30.0229L42.7636 37.4283L54.8586 29.4278Z" fill="#C8FF00"></path>
<path id="Vector_3" d="M6.10352e-05 51.3087C4.1639 48.3994 7.53463 46.0191 10.9714 43.6388C21.8767 51.0442 32.5177 58.2512 43.3568 65.5905C54.13 58.3173 64.837 51.1103 75.8744 43.6388C79.3112 46.0191 82.8142 48.4655 86.7797 51.1764C72.1072 61.0282 58.0294 70.5494 43.4229 80.4012C29.213 70.8139 14.937 61.2927 6.10352e-05 51.3087Z" fill="#C8FF00"></path>
</g>
</svg>
