<svg width="248" height="40" viewBox="0 0 248 40" fill="none" xmlns="http://www.w3.org/2000/svg">
<path d="M0.000427246 14.5137C7.33969 9.58782 14.3484 4.89333 21.6546 0.000488281C23.3075 1.15758 25.0267 2.28161 27.0764 3.73624C21.7207 7.33975 16.5964 10.811 11.1746 14.4476C14.8112 16.9601 18.1833 19.3404 21.6876 21.7538C27.1094 18.1172 32.4651 14.5137 37.92 10.8441C39.6721 11.9681 41.3912 13.1252 43.4079 14.4476C39.3415 17.1916 35.5397 19.7372 31.7047 22.3158C28.8616 24.2002 21.5554 28.8286 21.5554 28.8286C21.5554 28.8286 21.5884 28.9278 20.5966 28.2666C13.8525 23.7043 7.07521 19.2082 0.000427246 14.5137Z" fill="white"></path>
<path d="M27.4409 14.5138L21.9861 10.8772L15.837 14.8113L21.391 18.514L27.4409 14.5138Z" fill="#C8FF00"></path>
<path d="M0.000427246 25.4543C2.08319 23.9997 3.76924 22.8095 5.48835 21.6194C10.9432 25.3221 16.2658 28.9256 21.6876 32.5952C27.0764 28.9586 32.432 25.3551 37.953 21.6194C39.6721 22.8095 41.4243 24.0327 43.4079 25.3882C36.0686 30.3141 29.0269 35.0747 21.7207 40.0006C14.6128 35.2069 7.47193 30.4463 0.000427246 25.4543Z" fill="#C8FF00"></path>
<path d="M114.52 27.1081H111.181C111.181 27.1081 111.181 20.2978 111.181 17.1571C111.181 16.2975 110.851 15.9339 109.991 15.9339C108.669 15.9339 107.346 15.9339 105.958 15.9339C105.958 19.6696 105.958 23.3393 105.958 27.075C104.801 27.075 103.71 27.075 102.586 27.075C102.586 23.4054 102.586 19.7027 102.586 15.9669C100.801 15.9669 99.0814 15.9669 97.3293 15.9669C97.3293 19.6696 97.3293 23.3393 97.3293 27.075C96.1722 27.075 95.0812 27.075 93.9572 27.075C93.9572 22.3475 93.9572 17.5869 93.9572 12.8263C94.0894 12.8263 104.933 12.7932 110.189 12.7932C111.545 12.7932 112.735 13.223 113.661 14.2809C114.256 14.9421 114.553 15.7686 114.553 16.6612C114.553 20.0664 114.52 27.1081 114.52 27.1081Z" fill="white"></path>
<path d="M130.355 27.1094H126.983C126.983 27.1094 126.983 19.7041 126.983 16.0014C125.198 16.0014 123.479 16.0014 121.726 16.0014C121.726 19.7041 121.726 27.1094 121.726 27.1094H118.387V12.8276C118.387 12.8276 129.33 12.8276 134.554 12.8276C135.612 12.8276 136.603 13.0591 137.463 13.7203C138.422 14.4476 138.984 15.4063 138.984 16.6626C138.984 20.0677 138.951 27.1094 138.951 27.1094H135.612C135.612 27.1094 135.612 20.3322 135.612 17.2246C135.612 16.332 135.281 15.9683 134.388 15.9683C133.066 15.9683 130.355 15.9683 130.355 15.9683V27.1094Z" fill="white"></path>
<path d="M157.796 20.7274C153.63 20.7274 149.564 20.7274 145.431 20.7274C145.431 21.5539 145.398 22.3473 145.431 23.1407C145.464 23.5375 145.861 23.9011 146.324 23.9672C146.522 24.0003 157.63 24.0003 157.63 24.0003V27.1079C157.63 27.1079 149.994 27.141 146.39 27.141C143.778 27.141 142.125 25.7194 142.125 23.1077C142.125 21.058 142.158 18.9752 142.125 16.9255C142.092 14.446 144.076 12.8922 146.093 12.8592C148.704 12.793 151.283 12.793 153.895 12.8592C156.11 12.8922 157.763 14.6113 157.796 16.8263C157.829 18.0826 157.796 19.3719 157.796 20.7274ZM154.457 17.8181C154.457 17.6859 154.457 17.5867 154.49 17.4545C154.49 16.2643 154.192 15.9337 153.002 15.9337C152.076 15.9337 151.184 15.9337 150.258 15.9337C149.068 15.9337 147.878 15.9337 146.688 15.9337C145.96 15.9337 145.531 16.3304 145.497 16.9586C145.464 17.223 145.497 17.5206 145.497 17.7851C148.473 17.8181 151.448 17.8181 154.457 17.8181Z" fill="white"></path>
<path d="M194.624 20.6943C194.624 21.5208 194.591 22.2812 194.624 23.0746C194.624 23.5044 195.02 23.8681 195.516 23.9672C195.715 24.0003 206.856 24.0003 206.856 24.0003V27.1079C206.856 27.1079 199.219 27.141 195.582 27.141C193.83 27.141 191.318 26.2484 191.318 23.1077C191.318 21.0249 191.351 18.9752 191.318 16.8924C191.285 14.446 193.235 12.8922 195.252 12.8592C197.863 12.793 200.475 12.793 203.087 12.8592C205.302 12.9253 206.922 14.6113 206.955 16.8263C206.988 18.1157 206.955 19.405 206.955 20.7274C204.872 20.7274 202.822 20.7274 200.773 20.7274C198.756 20.6943 196.706 20.6943 194.624 20.6943ZM203.616 17.8181C203.616 17.6859 203.616 17.5867 203.649 17.4545C203.649 16.2643 203.351 15.9337 202.161 15.9337C201.269 15.9337 200.409 15.9337 199.516 15.9337C198.293 15.9337 197.07 15.9337 195.847 15.9337C195.153 15.9337 194.69 16.3304 194.657 16.9255C194.624 17.223 194.657 17.4875 194.657 17.8181C197.632 17.8181 200.607 17.8181 203.616 17.8181Z" fill="white"></path>
<path d="M78.782 27.1063C76.9306 27.0732 75.2776 25.817 74.8148 24.0979C74.7156 23.7342 74.6826 23.3375 74.6826 22.9408C74.6826 20.9572 74.7156 18.9736 74.6826 16.99C74.6164 14.6097 76.5339 12.8906 78.7159 12.8245C81.2945 12.7584 83.8401 12.7584 86.4188 12.8245C88.6007 12.8906 90.5182 14.6097 90.4521 16.99C90.419 18.9405 90.4521 20.9241 90.4521 22.8747C90.4521 25.2219 88.6999 27.0071 86.3527 27.0732C85.0964 27.1394 80.0382 27.1394 78.782 27.1063ZM85.8898 23.9987C86.7494 23.9987 87.1461 23.602 87.1461 22.7424C87.1461 20.8911 87.1461 19.0728 87.1461 17.2214C87.1461 16.3288 86.7824 15.9321 85.8898 15.9321C83.7079 15.9321 81.5259 15.9321 79.344 15.9321C78.4514 15.9321 78.0877 16.2958 78.0877 17.1884C78.0877 19.0067 78.0877 20.825 78.0877 22.6432C78.0877 23.5689 78.4514 23.9326 79.377 23.9326C80.4019 23.9987 84.7658 23.9987 85.8898 23.9987Z" fill="white"></path>
<path d="M71.5753 18.2156C70.4513 18.2156 69.3934 18.2156 68.2363 18.2156C68.2363 17.8189 68.2363 17.4553 68.2363 17.0585C68.2363 16.3643 67.8726 15.9345 67.2114 15.9345C64.8973 15.9014 62.5831 15.9014 60.2358 15.9345C59.5746 15.9345 59.211 16.3643 59.211 17.0255C59.211 18.976 59.211 20.8935 59.211 22.844C59.211 23.5382 59.5746 23.968 60.2689 23.968C62.55 24.0011 64.8642 24.0011 67.1453 23.968C67.8726 23.968 68.2363 23.5382 68.2363 22.8109C68.2363 22.3812 68.2363 21.9844 68.2363 21.5216C69.3603 21.5216 70.4182 21.5216 71.5092 21.5216C71.6084 24.7945 70.6166 26.8773 67.542 27.0426C64.9964 27.1748 62.4508 27.1087 59.8722 27.0426C57.7894 27.0095 55.7728 25.3896 55.8058 22.8771C55.8389 20.8935 55.8389 18.9099 55.8058 16.9263C55.7728 14.4468 57.7894 12.8269 59.8391 12.7608C62.3847 12.6947 64.9303 12.6947 67.509 12.7608C69.8232 12.8269 71.6745 14.6452 71.5753 16.9594C71.5753 17.3891 71.5753 17.7859 71.5753 18.2156Z" fill="white"></path>
<path d="M184.705 21.5181C185.83 21.5181 186.92 21.5181 187.978 21.5181C188.144 24.3943 187.846 26.2456 184.97 26.9729C184.705 27.0721 184.21 27.1052 183.846 27.1052C181.4 27.1052 178.953 27.1382 176.507 27.1052C174.523 27.1052 172.308 25.915 172.308 22.9066C172.308 20.9561 172.341 18.9725 172.308 17.022C172.242 14.4764 174.358 12.8564 176.441 12.8234C178.953 12.7903 181.466 12.7903 183.945 12.8234C186.226 12.8564 188.011 14.3111 188.078 17.022C188.078 17.4187 188.078 17.7823 188.078 18.1791C186.954 18.1791 185.863 18.1791 184.739 18.1791C184.739 17.7823 184.739 17.3856 184.739 17.022C184.739 16.3277 184.342 15.931 183.648 15.931C182.557 15.8979 181.466 15.931 180.408 15.931C179.284 15.931 178.16 15.931 177.003 15.931C176.044 15.931 175.713 16.2947 175.713 17.2203C175.713 19.0717 175.713 20.89 175.713 22.7413C175.713 23.6009 176.077 23.9976 176.936 23.9976C179.118 23.9976 181.333 23.9976 183.515 23.9976C184.375 23.9976 184.705 23.6009 184.705 22.7744C184.705 22.3446 184.705 21.9479 184.705 21.5181Z" fill="white"></path>
<path d="M210.657 12.8276C210.657 12.8276 218.294 12.8276 221.93 12.8276C222.79 12.8276 223.617 12.9929 224.377 13.4558C225.633 14.2161 226.294 15.3071 226.294 16.7948C226.294 20.1338 226.294 23.4398 226.294 26.7788C226.294 26.878 226.294 26.9772 226.261 27.1094C225.17 27.1094 224.079 27.1094 222.922 27.1094C222.922 26.9111 222.922 26.7458 222.922 26.5474C222.922 23.4068 222.922 20.2661 222.922 17.1254C222.922 16.365 222.559 15.9683 221.798 15.9683C219.286 15.9683 214.029 16.0014 214.029 16.0014C214.029 16.0014 214.029 23.3737 214.029 27.1094C212.905 27.1094 211.814 27.1094 210.69 27.1094C210.657 22.3488 210.657 12.8276 210.657 12.8276Z" fill="white"></path>
<path d="M230.096 6.80713C231.221 6.80713 232.311 6.80713 233.436 6.80713C233.436 7.83198 233.436 12.824 233.436 12.824H236.378V15.9316H233.436V27.1058H230.063C230.096 27.0728 230.096 13.5844 230.096 6.80713Z" fill="white"></path>
<path d="M169.73 15.9318C168.407 15.9318 167.151 15.8987 165.895 15.9318C165.564 15.9318 165.167 16.031 164.969 16.2293C164.771 16.4277 164.639 16.8244 164.639 17.1219C164.605 20.2626 164.639 26.8746 164.639 27.0729C163.481 27.0729 161.266 27.0729 161.266 27.0729C161.266 27.0729 161.299 20.1965 161.266 16.9897C161.2 14.411 163.151 12.9234 165.167 12.8242C166.688 12.725 169.796 12.7911 169.796 12.7911C169.796 12.7911 169.73 14.8739 169.73 15.9318Z" fill="white"></path>
<path d="M247.915 12.828V15.9025C247.915 15.9025 245.171 15.9356 244.047 15.9356C243.121 15.9356 242.758 16.2992 242.758 17.2249C242.758 20.3325 242.758 27.0767 242.758 27.0767H239.386C239.386 27.0767 239.419 20.1672 239.386 16.9935C239.32 14.4148 241.27 12.9271 243.287 12.828C244.807 12.7619 247.915 12.828 247.915 12.828Z" fill="white"></path>
</svg>
