<svg xmlns="http://www.w3.org/2000/svg" width="248" height="40" fill="none"><path fill="#fff" d="M0 14.514C7.34 9.588 14.348 4.894 21.655 0c1.652 1.158 3.372 2.282 5.421 3.736-5.355 3.604-10.48 7.075-15.901 10.712 3.636 2.512 7.008 4.892 10.513 7.306 5.421-3.637 10.777-7.24 16.232-10.91 1.752 1.124 3.471 2.281 5.488 3.604-4.066 2.744-7.868 5.29-11.703 7.868-2.843 1.884-10.15 6.513-10.15 6.513s.033.099-.958-.562C13.852 23.704 7.075 19.208 0 14.514"/><path fill="#C8FF00" d="m27.44 14.514-5.454-3.637-6.149 3.934 5.554 3.703zM0 25.454C2.083 24 3.77 22.81 5.488 21.62a14399 14399 0 0 0 16.2 10.976c5.388-3.636 10.744-7.24 16.265-10.976 1.72 1.19 3.471 2.414 5.455 3.77C36.068 30.313 29.027 35.074 21.72 40 14.613 35.207 7.47 30.446 0 25.454"/><path fill="#fff" d="M114.52 27.108h-3.339v-9.95c0-.86-.33-1.224-1.19-1.224h-4.033v11.141h-3.372V15.967h-5.257v11.108h-3.372V12.826c.132 0 10.976-.033 16.232-.033 1.356 0 2.546.43 3.472 1.488.595.661.892 1.488.892 2.38 0 3.405-.033 10.447-.033 10.447M130.355 27.11h-3.372V16h-5.257V27.11h-3.339V12.828h16.167c1.058 0 2.049.231 2.909.892.959.728 1.521 1.686 1.521 2.943 0 3.405-.033 10.446-.033 10.446h-3.339v-9.884c0-.893-.331-1.257-1.224-1.257h-4.033zM157.796 20.727h-12.365c0 .827-.033 1.62 0 2.414.033.397.43.76.893.826.198.033 11.306.033 11.306.033v3.108s-7.636.033-11.24.033c-2.612 0-4.265-1.422-4.265-4.033 0-2.05.033-4.133 0-6.183-.033-2.479 1.951-4.033 3.968-4.066 2.611-.066 5.19-.066 7.802 0 2.215.033 3.868 1.752 3.901 3.967.033 1.257 0 2.546 0 3.901m-3.339-2.909c0-.132 0-.231.033-.364 0-1.19-.298-1.52-1.488-1.52h-6.314c-.728 0-1.157.396-1.191 1.025-.033.264 0 .562 0 .826 2.976.033 5.951.033 8.96.033M194.624 20.694c0 .827-.033 1.587 0 2.38 0 .43.396.794.892.893.199.033 11.34.033 11.34.033v3.108s-7.637.033-11.274.033c-1.752 0-4.264-.893-4.264-4.033 0-2.083.033-4.133 0-6.216-.033-2.446 1.917-4 3.934-4.033q3.917-.099 7.835 0c2.215.066 3.835 1.752 3.868 3.967.033 1.29 0 2.579 0 3.901h-6.182c-2.017-.033-4.067-.033-6.149-.033m8.992-2.876c0-.132 0-.231.033-.364 0-1.19-.298-1.52-1.488-1.52h-6.314c-.694 0-1.157.396-1.19.992-.033.297 0 .562 0 .892zM78.782 27.106c-1.851-.033-3.504-1.289-3.967-3.008-.1-.364-.132-.76-.132-1.157 0-1.984.033-3.967 0-5.951-.067-2.38 1.85-4.1 4.033-4.165 2.579-.067 5.124-.067 7.703 0 2.182.066 4.1 1.785 4.033 4.165-.033 1.95 0 3.934 0 5.885 0 2.347-1.752 4.132-4.1 4.198-1.256.066-6.314.066-7.57.033M85.89 24c.86 0 1.256-.397 1.256-1.257v-5.52c0-.893-.364-1.29-1.256-1.29h-6.546c-.893 0-1.256.364-1.256 1.256v5.455c0 .926.363 1.29 1.289 1.29 1.025.066 5.389.066 6.513.066M71.575 18.216h-3.339v-1.158c0-.694-.363-1.123-1.025-1.123a245 245 0 0 0-6.975 0c-.661 0-1.025.43-1.025 1.09v5.819c0 .694.364 1.124 1.058 1.124 2.281.033 4.595.033 6.876 0 .728 0 1.091-.43 1.091-1.157v-1.29h3.273c.1 3.273-.892 5.356-3.967 5.522-2.546.132-5.091.066-7.67 0-2.083-.034-4.1-1.653-4.066-4.166a178 178 0 0 0 0-5.95c-.033-2.48 1.983-4.1 4.033-4.166 2.546-.066 5.091-.066 7.67 0 2.314.066 4.165 1.884 4.066 4.198zM184.705 21.518h3.273c.166 2.876-.132 4.728-3.008 5.455-.265.1-.76.132-1.124.132-2.446 0-4.893.033-7.339 0-1.984 0-4.199-1.19-4.199-4.198 0-1.95.033-3.934 0-5.885-.066-2.546 2.05-4.166 4.133-4.199 2.512-.033 5.025-.033 7.504 0 2.281.033 4.066 1.488 4.133 4.199v1.157h-3.339v-1.157c0-.694-.397-1.091-1.091-1.091-1.091-.033-2.182 0-3.24 0h-3.405c-.959 0-1.29.364-1.29 1.29v5.52c0 .86.364 1.257 1.223 1.257h6.579c.86 0 1.19-.397 1.19-1.224zM210.657 12.828h11.273c.86 0 1.687.165 2.447.628 1.256.76 1.917 1.851 1.917 3.339v9.984c0 .099 0 .198-.033.33h-3.339v-9.984c0-.76-.363-1.157-1.124-1.157-2.512 0-7.769.033-7.769.033V27.11h-3.339c-.033-4.76-.033-14.281-.033-14.281M230.096 6.807h3.34v6.017h2.942v3.108h-2.942v11.174h-3.373c.033-.033.033-13.522.033-20.299M169.73 15.932c-1.323 0-2.579-.033-3.835 0-.331 0-.728.099-.926.297-.198.199-.33.595-.33.893-.034 3.14 0 9.753 0 9.95h-3.373s.033-6.875 0-10.082c-.066-2.579 1.885-4.067 3.901-4.166 1.521-.099 4.629-.033 4.629-.033s-.066 2.083-.066 3.14M247.915 12.828v3.075s-2.744.033-3.868.033c-.926 0-1.289.363-1.289 1.289v9.852h-3.372s.033-6.91 0-10.083c-.066-2.58 1.884-4.067 3.901-4.166 1.52-.066 4.628 0 4.628 0"/></svg>