<svg xmlns="http://www.w3.org/2000/svg" width="87" height="81" fill="none"><g id="Logo Vector"><path id="Vector" fill="#fff" d="M0 29.428C14.673 19.576 28.684 10.188 43.29.4c3.305 2.315 6.742 4.563 10.84 7.472-10.707 7.207-20.952 14.15-31.79 21.423 7.27 5.025 14.011 9.785 21.017 14.612 10.839-7.273 21.546-14.48 32.451-21.82 3.503 2.249 6.94 4.563 10.972 7.208-8.13 5.487-15.73 10.579-23.397 15.736-5.684 3.769-20.29 13.026-20.29 13.026s.065.198-1.917-1.124C27.693 47.809 14.144 38.817 0 29.428"/><path id="Vector_2" fill="#C8FF00" d="m54.859 29.428-10.906-7.273-12.293 7.868 11.104 7.405z"/><path id="Vector_3" fill="#C8FF00" d="M0 51.309c4.164-2.91 7.535-5.29 10.971-7.67A29037 29037 0 0 0 43.357 65.59c10.773-7.274 21.48-14.48 32.517-21.952 3.437 2.38 6.94 4.826 10.906 7.537-14.673 9.852-28.75 19.373-43.357 29.225C29.213 70.814 14.937 61.293 0 51.31"/></g></svg>