<svg width="80" height="73" viewBox="0 0 80 73" fill="none" xmlns="http://www.w3.org/2000/svg">
<path d="M0.949158 26.2752C14.1545 17.4086 26.765 8.95849 39.9108 0.151367C42.885 2.23413 45.9781 4.25739 49.6661 6.87572C40.0298 13.362 30.8098 19.6103 21.0545 26.1562C27.5977 30.6787 33.665 34.9633 39.9703 39.3073C49.7255 32.7615 59.3619 26.2752 69.1766 19.6698C72.3292 21.6931 75.4224 23.7759 79.0509 26.1562C71.7344 31.0953 64.8938 35.6774 57.9937 40.319C52.8782 43.7109 39.7323 52.042 39.7323 52.042C39.7323 52.042 39.7918 52.2205 38.0073 51.0303C25.8727 42.8183 13.6786 34.7253 0.949158 26.2752Z" fill="white"/>
<path d="M50.3219 26.2753L40.5071 19.7295L29.4432 26.8109L39.4364 33.4757L50.3219 26.2753Z" fill="#C8FF00"/>
<path d="M0.949203 45.9678C4.69666 43.3495 7.73031 41.2072 10.8235 39.0649C20.6382 45.7298 30.215 52.2161 39.9703 58.8214C49.6661 52.2756 59.3024 45.7893 69.2361 39.0649C72.3293 41.2072 75.4819 43.409 79.0509 45.8488C65.8456 54.7154 53.1756 63.2845 40.0298 72.1511C27.2409 63.5225 14.3925 54.9535 0.949203 45.9678Z" fill="#C8FF00"/>
</svg>
